<?xml version="1.0" standalone="no"?>
<!DOCTYPE svg PUBLIC "-//W3C//DTD SVG 20010904//EN"
 "http://www.w3.org/TR/2001/REC-SVG-20010904/DTD/svg10.dtd">
<svg version="1.0" xmlns="http://www.w3.org/2000/svg"
 width="771.000000pt" height="771.000000pt" viewBox="0 0 771.000000 771.000000"
 preserveAspectRatio="xMidYMid meet">
<metadata>
Created by potrace 1.11, written by Peter Selinger 2001-2013
</metadata>
<g transform="translate(0.000000,771.000000) scale(0.100000,-0.100000)"
fill="#000000" stroke="none">
<path d="M140 3855 l0 -3855 3110 0 3110 0 0 1875 0 1875 -135 0 -135 0 0
-1810 0 -1810 -2830 0 -2830 0 5 853 c2 468 7 998 10 1176 4 216 2 328 -5 335
-14 14 -14 2286 0 2286 6 0 10 115 10 325 0 210 -4 325 -10 325 -7 0 -10 343
-10 1010 l0 1010 2830 0 2830 0 0 -300 0 -300 135 0 136 0 -3 394 -3 395 -34
35 -35 36 -3073 0 -3073 0 0 -3855z"/>
<path d="M7185 7075 c-109 -55 -197 -125 -366 -294 -148 -149 -181 -184 -294
-315 -27 -32 -58 -68 -68 -80 -10 -11 -31 -36 -45 -55 -30 -38 -124 -156 -149
-185 -9 -11 -70 -92 -137 -180 -66 -89 -123 -163 -126 -166 -3 -3 -44 -59 -90
-125 -46 -66 -87 -122 -90 -125 -4 -3 -37 -50 -75 -105 -38 -55 -72 -102 -75
-105 -4 -4 -76 -108 -153 -224 -15 -22 -33 -48 -40 -56 -7 -9 -16 -22 -20 -30
-7 -15 -209 -317 -225 -336 -5 -5 -15 -21 -22 -35 -7 -13 -16 -26 -19 -29 -5
-4 -189 -288 -266 -410 -12 -19 -50 -80 -85 -135 -34 -55 -64 -102 -65 -103
-3 -4 -64 37 -75 49 -8 9 -291 199 -297 199 -2 0 -24 14 -48 30 -24 17 -48 30
-54 30 -6 0 -11 5 -11 10 0 6 -5 10 -11 10 -6 0 -24 9 -40 21 -42 30 -281 149
-299 149 -9 0 -20 4 -25 8 -9 8 -34 16 -131 41 -64 17 -147 13 -198 -8 -66
-29 -105 -68 -137 -138 -25 -54 -29 -75 -29 -153 0 -69 4 -97 17 -118 20 -31
75 -104 84 -112 16 -13 197 -262 291 -400 104 -154 234 -368 322 -530 76 -140
273 -543 331 -675 16 -36 31 -69 100 -220 13 -27 35 -79 50 -115 27 -66 37
-89 72 -170 11 -25 32 -76 48 -115 16 -38 32 -74 37 -80 4 -5 8 -16 8 -25 0
-9 15 -30 33 -48 27 -27 41 -32 79 -32 70 0 91 29 138 190 47 161 72 246 80
265 4 11 25 74 45 140 46 149 74 234 85 260 5 11 30 83 55 160 25 77 50 149
54 160 5 11 14 34 19 50 14 40 81 224 93 253 5 12 13 32 18 45 5 12 22 56 37
97 15 41 36 95 46 120 11 25 24 54 28 65 4 11 17 40 28 65 11 25 23 56 27 70
4 14 19 50 32 80 14 30 31 69 38 85 7 17 24 56 39 88 14 32 26 60 26 62 0 6
74 169 95 208 8 16 15 35 15 43 0 8 5 14 10 14 6 0 10 6 10 14 0 8 9 31 19 53
11 21 52 103 91 183 93 189 207 407 277 530 11 19 31 55 45 80 49 87 66 116
143 245 85 142 329 521 403 626 26 36 74 104 107 150 32 46 62 86 65 89 3 3
28 37 55 75 27 39 52 72 55 75 3 3 32 39 63 80 31 41 61 80 65 85 4 6 35 46
67 90 33 44 63 82 66 85 4 3 22 30 42 61 81 126 81 126 85 239 4 123 -8 154
-77 208 -41 31 -46 32 -134 32 -85 0 -97 -3 -162 -35z"/>
<path d="M1500 5457 c-17 -8 -150 -13 -428 -15 l-403 -3 -9 -25 c-6 -14 -10
-157 -10 -319 0 -244 2 -296 15 -308 12 -12 91 -15 492 -19 443 -3 480 -5 506
-22 l27 -18 0 -1438 0 -1437 21 -19 c19 -17 39 -19 234 -19 l213 0 21 25 20
25 1 1425 c0 1274 2 1428 16 1448 14 21 23 22 129 22 94 0 118 -3 135 -17 20
-17 20 -27 20 -1443 0 -1120 3 -1432 13 -1453 16 -36 37 -39 260 -35 185 3
189 4 208 27 18 23 19 61 19 1460 0 820 4 1442 9 1450 8 12 90 15 483 18 297
3 483 8 501 15 l27 10 0 308 c0 274 -2 309 -17 321 -13 11 -94 15 -392 19
-275 4 -382 8 -398 18 -30 17 -1675 17 -1713 -1z"/>
</g>
</svg>
