<?xml version="1.0" standalone="no"?>
<!DOCTYPE svg PUBLIC "-//W3C//DTD SVG 20010904//EN"
 "http://www.w3.org/TR/2001/REC-SVG-20010904/DTD/svg10.dtd">
<svg version="1.0" xmlns="http://www.w3.org/2000/svg"
 width="512.000000pt" height="512.000000pt" viewBox="0 0 512.000000 512.000000"
 preserveAspectRatio="xMidYMid meet">
<metadata>
Created by potrace 1.11, written by Peter Selinger 2001-2013
</metadata>
<g transform="translate(0.000000,512.000000) scale(0.100000,-0.100000)"
fill="#000000" stroke="none">
<path d="M705 2535 l0 -1485 1402 0 c1261 0 1403 2 1417 16 9 8 16 21 17 27 1
7 2 292 3 634 l1 623 -62 0 -63 0 -1 -387 c0 -214 0 -479 1 -590 l1 -203
-1291 0 -1290 0 -1 33 c0 17 0 86 1 152 1 66 2 190 2 275 0 144 0 992 0 1335
0 83 -1 321 -2 530 -1 209 -1 385 -1 392 1 9 300 12 1290 11 l1288 0 2 -60 c1
-33 3 -64 6 -68 2 -4 30 -7 61 -6 l57 1 2 115 c1 63 0 121 -3 128 -3 9 -296
12 -1421 12 l-1416 0 0 -1485z"/>
<path d="M3946 3875 c-20 -7 -55 -25 -78 -40 -67 -44 -242 -228 -334 -350 -21
-27 -41 -52 -44 -55 -3 -3 -48 -61 -98 -130 -51 -69 -99 -134 -107 -145 -53
-68 -372 -549 -439 -662 -16 -26 -31 -42 -33 -35 -3 6 -11 12 -19 12 -8 0 -14
4 -14 8 0 5 -12 15 -27 23 -16 8 -30 16 -33 19 -10 10 -65 46 -92 59 -16 8
-28 18 -28 23 0 5 -4 7 -9 3 -5 -3 -13 -1 -16 5 -11 17 -149 79 -204 91 -64
13 -91 7 -133 -31 -30 -28 -33 -35 -33 -93 0 -57 3 -67 35 -107 19 -25 38 -49
42 -55 4 -5 18 -23 31 -40 20 -26 82 -119 153 -230 42 -67 230 -440 249 -495
20 -58 110 -258 123 -272 23 -27 59 -23 75 10 12 23 86 257 91 287 1 6 4 15 7
20 5 8 30 76 34 95 1 3 4 12 8 20 3 8 12 35 21 60 8 25 26 77 41 115 15 39 28
75 29 80 1 6 10 28 20 50 10 22 19 45 20 50 1 6 10 27 19 49 9 21 17 45 17 52
0 8 5 14 10 14 6 0 10 7 10 15 0 8 4 23 10 33 5 9 32 67 59 127 27 61 63 139
81 175 52 107 161 312 170 320 3 3 25 39 49 80 43 72 183 289 208 320 7 8 47
62 90 120 42 58 81 110 85 115 84 105 98 134 98 200 0 35 -6 52 -25 70 -13 14
-30 25 -37 26 -7 0 -20 2 -29 4 -8 1 -32 -3 -53 -10z"/>
<path d="M1376 3133 c-3 -3 -150 -16 -163 -15 -60 8 -263 0 -269 -10 -8 -13
-8 -274 0 -286 3 -6 101 -10 228 -11 126 0 225 -4 231 -10 6 -6 9 -262 9 -665
0 -625 1 -657 18 -666 29 -15 186 -13 202 3 11 11 13 134 12 658 0 354 3 652
8 662 7 13 21 17 63 17 29 0 57 -5 61 -11 4 -7 7 -302 6 -658 0 -386 4 -653 9
-663 8 -15 24 -18 102 -18 59 0 97 4 105 12 9 9 12 171 12 669 0 429 3 660 10
664 6 3 99 6 208 6 108 0 208 2 222 5 l25 5 0 140 c0 126 -2 142 -19 155 -10
7 -23 11 -27 8 -12 -7 -193 -7 -289 1 -73 6 -758 13 -764 8z"/>
</g>
</svg>
